<?xml version="1.0" encoding="UTF-8" standalone="no"?>
<svg
   xmlns:dc="http://purl.org/dc/elements/1.1/"
   xmlns:cc="http://creativecommons.org/ns#"
   xmlns:rdf="http://www.w3.org/1999/02/22-rdf-syntax-ns#"
   xmlns:svg="http://www.w3.org/2000/svg"
   xmlns="http://www.w3.org/2000/svg"
   xmlns:sodipodi="http://sodipodi.sourceforge.net/DTD/sodipodi-0.dtd"
   xmlns:inkscape="http://www.inkscape.org/namespaces/inkscape"
   inkscape:version="1.0 (4035a4fb49, 2020-05-01)"
   sodipodi:docname="af-logo-prod.svg"
   id="svg25"
   viewBox="0 0 61.2 17.9"
   version="1.1"
   enable-background="new"
   height="17.9mm"
   width="61.2mm">
  <sodipodi:namedview
     inkscape:current-layer="text21"
     inkscape:window-maximized="1"
     inkscape:window-y="-8"
     inkscape:window-x="1592"
     inkscape:cy="27.850684"
     inkscape:cx="99.743151"
     inkscape:zoom="2.4577716"
     showgrid="false"
     id="namedview27"
     inkscape:window-height="987"
     inkscape:window-width="1680"
     inkscape:pageshadow="2"
     inkscape:pageopacity="0"
     guidetolerance="10"
     gridtolerance="10"
     objecttolerance="10"
     borderopacity="1"
     bordercolor="#666666"
     pagecolor="#ffffff" />
  <defs
     id="defs5">
    <filter
       color-interpolation-filters="sRGB"
       height="1.23"
       width="1.06"
       y="-.116"
       x="-.0303"
       id="filter5025">
      <feGaussianBlur
         id="feGaussianBlur2"
         stdDeviation="0.73793942" />
    </filter>
  </defs>
  <metadata
     id="metadata7">
    <rdf:RDF>
      <cc:Work
         rdf:about="">
        <dc:format>image/svg+xml</dc:format>
        <dc:type
           rdf:resource="http://purl.org/dc/dcmitype/StillImage" />
        <dc:title />
      </cc:Work>
    </rdf:RDF>
  </metadata>
  <g
     id="g11"
     display="none">
    <rect
       id="rect9"
       stroke-width=".265"
       stroke="#000"
       fill-opacity=".986"
       height="19.4"
       width="63.1"
       y="-.231"
       x="-.189" />
  </g>
  <g
     id="g17"
     transform="translate(-80.2 -96.4)">
    <g
       onclick=""
       style="font-size:25.4px;line-height:125%;font-family:'TI-83p Mini Sans';letter-spacing:0px;word-spacing:0px;fill:#1cabf9;stroke-width:0.265px"
       id="text15"
       aria-label="0xAF">
      <path
         id="path852"
         style="font-size:25.4px;font-family:'Courier New';font-variant-ligatures:normal;font-variant-caps:normal;font-variant-numeric:normal;font-feature-settings:normal;fill:#1cabf9;stroke-width:0.265px"
         d="m 92.627785,103.48152 v 2.57968 q 0,3.36104 -1.599903,5.32061 -1.252636,1.53789 -3.162597,1.53789 -0.917774,0 -1.736328,-0.37207 -0.806153,-0.35967 -1.376661,-1.01699 -0.359668,-0.40928 -0.79375,-1.31465 -0.421679,-0.90537 -0.607714,-1.66191 -0.285254,-1.06661 -0.285254,-2.49288 v -2.57968 q 0,-3.37344 1.599902,-5.333011 1.252637,-1.53789 3.162598,-1.53789 0.930175,0 1.736328,0.37207 0.806152,0.359668 1.37666,1.016992 0.37207,0.42168 0.79375,1.327051 0.421679,0.905368 0.620117,1.649508 0.272852,1.06661 0.272852,2.50528 z m -1.041797,0.13642 q 0,-1.47588 -0.42168,-2.74091 -0.409277,-1.277446 -0.930176,-2.033989 -0.310058,-0.434082 -0.806152,-0.744141 -0.706934,-0.434082 -1.5875,-0.434082 -1.748731,0 -2.740918,1.785938 -0.992187,1.785934 -0.992187,4.167184 v 2.29444 q 0,1.47588 0.409277,2.75332 0.42168,1.27744 0.95498,2.03398 0.297657,0.42168 0.79375,0.73174 0.706934,0.44648 1.599903,0.44648 1.736328,0 2.728515,-1.78593 0.992188,-1.79834 0.992188,-4.17959 z" />
      <path
         id="path854"
         style="font-size:25.4px;font-family:'Courier New';font-variant-ligatures:normal;font-variant-caps:normal;font-variant-numeric:normal;font-feature-settings:normal;fill:#1cabf9;stroke-width:0.265px"
         d="m 103.78989,106.92937 4.77491,4.57646 q 0.47128,0 0.59531,0.0496 0.12402,0.0372 0.21084,0.17364 0.0992,0.13642 0.0992,0.29765 0,0.22324 -0.16123,0.37207 -0.16123,0.14883 -0.54571,0.14883 h -3.34863 q -0.38447,0 -0.5457,-0.14883 -0.16123,-0.14883 -0.16123,-0.37207 0,-0.23564 0.16123,-0.37207 0.16123,-0.14883 0.5457,-0.14883 h 1.72393 l -4.05557,-3.88193 -4.030762,3.88193 h 1.736332 q 0.37207,0 0.5333,0.14883 0.16123,0.13643 0.16123,0.37207 0,0.22324 -0.16123,0.37207 -0.16123,0.14883 -0.5333,0.14883 h -3.385843 q -0.372071,0 -0.533301,-0.14883 -0.161231,-0.14883 -0.161231,-0.37207 0,-0.16123 0.08682,-0.29765 0.09922,-0.13643 0.21084,-0.17364 0.124023,-0.0496 0.595312,-0.0496 l 4.774906,-4.57646 -4.241605,-4.06797 q -0.446484,0 -0.570508,-0.0496 -0.111621,-0.0496 -0.21084,-0.18603 -0.08682,-0.13643 -0.08682,-0.29766 0,-0.22324 0.16123,-0.37207 0.161231,-0.14883 0.545703,-0.14883 h 2.840136 q 0.38447,0 0.5333,0.14883 0.16123,0.14883 0.16123,0.38447 0,0.22324 -0.16123,0.37207 -0.14883,0.14883 -0.5333,0.14883 h -1.240233 l 3.509863,3.38584 3.53467,-3.38584 h -1.24024 q -0.37207,0 -0.5457,-0.14883 -0.16123,-0.14883 -0.16123,-0.38447 0,-0.22324 0.16123,-0.37207 0.16123,-0.14883 0.5457,-0.14883 h 2.84014 q 0.37207,0 0.5333,0.14883 0.16123,0.14883 0.16123,0.38447 0,0.14883 -0.0992,0.28526 -0.0868,0.13642 -0.21084,0.18603 -0.11162,0.0496 -0.5581,0.0496 z" />
      <path
         id="path856"
         style="font-size:25.4px;font-family:'Courier New';font-variant-ligatures:normal;font-variant-caps:normal;font-variant-numeric:normal;font-feature-settings:normal;fill:#1cabf9;stroke-width:0.265px"
         d="m 121.73608,107.69831 h -6.84609 l -1.40146,3.80752 h 1.99677 q 0.37207,0 0.5333,0.14883 0.16123,0.13643 0.16123,0.37207 0,0.22324 -0.16123,0.37207 -0.16123,0.14883 -0.5333,0.14883 h -3.89433 q -0.37207,0 -0.5333,-0.14883 -0.16123,-0.14883 -0.16123,-0.37207 0,-0.23564 0.16123,-0.37207 0.16123,-0.14883 0.5333,-0.14883 h 0.80615 l 4.60127,-12.427145 h -3.07578 q -0.37207,0 -0.5333,-0.136426 -0.16123,-0.148828 -0.16123,-0.384472 0,-0.235645 0.16123,-0.372071 0.16123,-0.148828 0.5333,-0.148828 h 5.24619 l 5.08496,13.468942 h 0.80615 q 0.37207,0 0.5333,0.14883 0.16123,0.13643 0.16123,0.37207 0,0.22324 -0.16123,0.37207 -0.16123,0.14883 -0.5333,0.14883 h -3.88193 q -0.38447,0 -0.5457,-0.14883 -0.16123,-0.14883 -0.16123,-0.37207 0,-0.23564 0.16123,-0.37207 0.16123,-0.14883 0.5457,-0.14883 h 1.98437 z m -0.39687,-1.04179 -2.87734,-7.577835 h -0.38448 l -2.79052,7.577835 z" />
      <path
         id="path858"
         style="font-size:25.4px;font-family:'Courier New';font-variant-ligatures:normal;font-variant-caps:normal;font-variant-numeric:normal;font-feature-settings:normal;fill:#1cabf9;stroke-width:0.265px"
         d="m 131.02544,105.54031 v 5.96552 h 3.57187 q 0.37207,0 0.5333,0.14883 0.16123,0.13643 0.16123,0.37207 0,0.22324 -0.16123,0.37207 -0.16123,0.14883 -0.5333,0.14883 h -6.01513 q -0.37207,0 -0.5333,-0.14883 -0.16124,-0.14883 -0.16124,-0.37207 0,-0.23564 0.16124,-0.37207 0.16123,-0.14883 0.5333,-0.14883 h 1.40146 V 99.078685 h -1.40146 q -0.37207,0 -0.5333,-0.136426 -0.16124,-0.148828 -0.16124,-0.384472 0,-0.235645 0.18604,-0.396875 0.13643,-0.124024 0.5085,-0.124024 h 11.47216 v 3.584282 q 0,0.37207 -0.14882,0.5333 -0.14883,0.16123 -0.37207,0.16123 -0.23565,0 -0.38448,-0.16123 -0.14883,-0.16123 -0.14883,-0.5333 v -2.542485 h -7.9747 v 5.419825 h 3.7331 v -1.17822 q 0,-0.37207 0.14883,-0.5333 0.14883,-0.16123 0.38447,-0.16123 0.22325,0 0.37207,0.16123 0.14883,0.16123 0.14883,0.5333 v 3.39824 q 0,0.37207 -0.14883,0.5333 -0.14882,0.16123 -0.37207,0.16123 -0.23564,0 -0.38447,-0.16123 -0.14883,-0.16123 -0.14883,-0.5333 v -1.17822 z" />
    </g>
  </g>
  <g
     id="g23"
     transform="translate(-80.2 -96.4)">
    <g
       onclick=""
       style="font-size:25.4px;line-height:125%;font-family:'TI-83p Mini Sans';letter-spacing:0px;word-spacing:0px;fill:#1cabf9;stroke-width:0.265px;filter:url(#filter5025)"
       id="text21"
       aria-label="0xAF">
      <path
         id="path861"
         style="font-size:25.4px;font-family:'Courier New';font-variant-ligatures:normal;font-variant-caps:normal;font-variant-numeric:normal;font-feature-settings:normal;fill:#1cabf9;stroke-width:0.265px"
         d="m 92.627785,103.48152 v 2.57968 q 0,3.36104 -1.599903,5.32061 -1.252636,1.53789 -3.162597,1.53789 -0.917774,0 -1.736328,-0.37207 -0.806153,-0.35967 -1.376661,-1.01699 -0.359668,-0.40928 -0.79375,-1.31465 -0.421679,-0.90537 -0.607714,-1.66191 -0.285254,-1.06661 -0.285254,-2.49288 v -2.57968 q 0,-3.37344 1.599902,-5.333011 1.252637,-1.53789 3.162598,-1.53789 0.930175,0 1.736328,0.37207 0.806152,0.359668 1.37666,1.016992 0.37207,0.42168 0.79375,1.327051 0.421679,0.905368 0.620117,1.649508 0.272852,1.06661 0.272852,2.50528 z m -1.041797,0.13642 q 0,-1.47588 -0.42168,-2.74091 -0.409277,-1.277446 -0.930176,-2.033989 -0.310058,-0.434082 -0.806152,-0.744141 -0.706934,-0.434082 -1.5875,-0.434082 -1.748731,0 -2.740918,1.785938 -0.992187,1.785934 -0.992187,4.167184 v 2.29444 q 0,1.47588 0.409277,2.75332 0.42168,1.27744 0.95498,2.03398 0.297657,0.42168 0.79375,0.73174 0.706934,0.44648 1.599903,0.44648 1.736328,0 2.728515,-1.78593 0.992188,-1.79834 0.992188,-4.17959 z" />
      <path
         id="path863"
         style="font-size:25.4px;font-family:'Courier New';font-variant-ligatures:normal;font-variant-caps:normal;font-variant-numeric:normal;font-feature-settings:normal;fill:#1cabf9;stroke-width:0.265px"
         d="m 103.78989,106.92937 4.77491,4.57646 q 0.47128,0 0.59531,0.0496 0.12402,0.0372 0.21084,0.17364 0.0992,0.13642 0.0992,0.29765 0,0.22324 -0.16123,0.37207 -0.16123,0.14883 -0.54571,0.14883 h -3.34863 q -0.38447,0 -0.5457,-0.14883 -0.16123,-0.14883 -0.16123,-0.37207 0,-0.23564 0.16123,-0.37207 0.16123,-0.14883 0.5457,-0.14883 h 1.72393 l -4.05557,-3.88193 -4.030762,3.88193 h 1.736332 q 0.37207,0 0.5333,0.14883 0.16123,0.13643 0.16123,0.37207 0,0.22324 -0.16123,0.37207 -0.16123,0.14883 -0.5333,0.14883 h -3.385843 q -0.372071,0 -0.533301,-0.14883 -0.161231,-0.14883 -0.161231,-0.37207 0,-0.16123 0.08682,-0.29765 0.09922,-0.13643 0.21084,-0.17364 0.124023,-0.0496 0.595312,-0.0496 l 4.774906,-4.57646 -4.241605,-4.06797 q -0.446484,0 -0.570508,-0.0496 -0.111621,-0.0496 -0.21084,-0.18603 -0.08682,-0.13643 -0.08682,-0.29766 0,-0.22324 0.16123,-0.37207 0.161231,-0.14883 0.545703,-0.14883 h 2.840136 q 0.38447,0 0.5333,0.14883 0.16123,0.14883 0.16123,0.38447 0,0.22324 -0.16123,0.37207 -0.14883,0.14883 -0.5333,0.14883 h -1.240233 l 3.509863,3.38584 3.53467,-3.38584 h -1.24024 q -0.37207,0 -0.5457,-0.14883 -0.16123,-0.14883 -0.16123,-0.38447 0,-0.22324 0.16123,-0.37207 0.16123,-0.14883 0.5457,-0.14883 h 2.84014 q 0.37207,0 0.5333,0.14883 0.16123,0.14883 0.16123,0.38447 0,0.14883 -0.0992,0.28526 -0.0868,0.13642 -0.21084,0.18603 -0.11162,0.0496 -0.5581,0.0496 z" />
      <path
         id="path865"
         style="font-size:25.4px;font-family:'Courier New';font-variant-ligatures:normal;font-variant-caps:normal;font-variant-numeric:normal;font-feature-settings:normal;fill:#1cabf9;stroke-width:0.265px"
         d="m 121.73608,107.69831 h -6.84609 l -1.40146,3.80752 h 1.99677 q 0.37207,0 0.5333,0.14883 0.16123,0.13643 0.16123,0.37207 0,0.22324 -0.16123,0.37207 -0.16123,0.14883 -0.5333,0.14883 h -3.89433 q -0.37207,0 -0.5333,-0.14883 -0.16123,-0.14883 -0.16123,-0.37207 0,-0.23564 0.16123,-0.37207 0.16123,-0.14883 0.5333,-0.14883 h 0.80615 l 4.60127,-12.427145 h -3.07578 q -0.37207,0 -0.5333,-0.136426 -0.16123,-0.148828 -0.16123,-0.384472 0,-0.235645 0.16123,-0.372071 0.16123,-0.148828 0.5333,-0.148828 h 5.24619 l 5.08496,13.468942 h 0.80615 q 0.37207,0 0.5333,0.14883 0.16123,0.13643 0.16123,0.37207 0,0.22324 -0.16123,0.37207 -0.16123,0.14883 -0.5333,0.14883 h -3.88193 q -0.38447,0 -0.5457,-0.14883 -0.16123,-0.14883 -0.16123,-0.37207 0,-0.23564 0.16123,-0.37207 0.16123,-0.14883 0.5457,-0.14883 h 1.98437 z m -0.39687,-1.04179 -2.87734,-7.577835 h -0.38448 l -2.79052,7.577835 z" />
      <path
         id="path867"
         style="font-size:25.4px;font-family:'Courier New';font-variant-ligatures:normal;font-variant-caps:normal;font-variant-numeric:normal;font-feature-settings:normal;fill:#1cabf9;stroke-width:0.265px"
         d="m 131.02544,105.54031 v 5.96552 h 3.57187 q 0.37207,0 0.5333,0.14883 0.16123,0.13643 0.16123,0.37207 0,0.22324 -0.16123,0.37207 -0.16123,0.14883 -0.5333,0.14883 h -6.01513 q -0.37207,0 -0.5333,-0.14883 -0.16124,-0.14883 -0.16124,-0.37207 0,-0.23564 0.16124,-0.37207 0.16123,-0.14883 0.5333,-0.14883 h 1.40146 V 99.078685 h -1.40146 q -0.37207,0 -0.5333,-0.136426 -0.16124,-0.148828 -0.16124,-0.384472 0,-0.235645 0.18604,-0.396875 0.13643,-0.124024 0.5085,-0.124024 h 11.47216 v 3.584282 q 0,0.37207 -0.14882,0.5333 -0.14883,0.16123 -0.37207,0.16123 -0.23565,0 -0.38448,-0.16123 -0.14883,-0.16123 -0.14883,-0.5333 v -2.542485 h -7.9747 v 5.419825 h 3.7331 v -1.17822 q 0,-0.37207 0.14883,-0.5333 0.14883,-0.16123 0.38447,-0.16123 0.22325,0 0.37207,0.16123 0.14883,0.16123 0.14883,0.5333 v 3.39824 q 0,0.37207 -0.14883,0.5333 -0.14882,0.16123 -0.37207,0.16123 -0.23564,0 -0.38447,-0.16123 -0.14883,-0.16123 -0.14883,-0.5333 v -1.17822 z" />
    </g>
  </g>
</svg>
